<svg id="Layer_1" data-name="Layer 1" xmlns="http://www.w3.org/2000/svg" viewBox="0 0 913.39 123.55"><defs><style>.cls-1{fill:#ff6171;}</style></defs><path class="cls-1" d="M36,55.64l-7,3.53a13.42,13.42,0,0,1-6.24,1.56c-11.13,0-18.72-8.52-18.72-19.45,0-10.19,7.9-21.52,21.32-21.52s20.9,11.85,20.9,26A41.37,41.37,0,0,1,20,84.65,48.63,48.63,0,0,1,7.59,87.36l-.83-3C21.53,81.64,32.55,71.76,36,55.64ZM24.13,23.4c-8.11,0-10.92,7.69-10.92,15,0,9.15,5.09,16.75,13.83,16.75a15.94,15.94,0,0,0,9.36-3,52.68,52.68,0,0,0,.42-6.76C36.82,36.08,34.22,23.4,24.13,23.4Z"/><path class="cls-1" d="M93,21l.62.84L90.9,28.7H67c-.93,5.72-2.28,13.83-3.22,18.93,4-1.46,9.67-3,12.27-3,12.79,0,19.56,9,19.56,17.68,0,6.24-2.6,12.28-9,17.48-5.72,4.57-12.9,7.28-18.41,7.28A15.48,15.48,0,0,1,57.41,83c-1.46-1.35-1.88-2.18-1.67-3.54a5.34,5.34,0,0,1,2.19-3.53,2.21,2.21,0,0,1,2.91,0c3,2.7,6.65,5.72,13.1,5.72,8.74,0,12.9-7.49,12.9-15.29,0-9.15-5.51-15.71-17.06-15.71a31,31,0,0,0-10.4,1.88l-.31-.42c1.56-8.11,3.85-22.78,5-31.1Z"/><path class="cls-1" d="M154,85.8V82.89c8.53-.94,9.37-1.36,9.37-10.2V31.4c0-8.94-.84-9.36-9.37-10.29V18.2h27.88v2.91c-8.63.93-9.47,1.35-9.47,10.29V72.69c0,9,.84,9.26,9.47,10.2V85.8Z"/><path class="cls-1" d="M221.3,18.2c14.67,0,23.92,2.91,30.37,9,5.1,5,8.84,12.28,8.84,22.26,0,12.17-5,22-13,28.08s-18,8.22-30.78,8.22H192.39V82.89c8.94-.84,9.36-1.56,9.36-10.09V31.3c0-8.94-1.25-9.36-9.36-10.19V18.2ZM210.8,72c0,7.81,3.33,10,11.13,10,18.72,0,28.28-12.79,28.28-31,0-11.34-3.84-20-12.06-25-4.78-3-10.82-4.16-17.78-4.16-4.68,0-7.18.62-8.22,1.45-.94.63-1.35,1.77-1.35,5.83Z"/><path class="cls-1" d="M324.57,69.26C324,72,321.14,82.68,320.1,85.8H269.55V82.89c9.68-.73,10.4-1.67,10.4-10.2V31.61c0-9.25-1.14-9.77-8.94-10.5V18.2h31.82c9.78,0,13.84-.11,15.09-.21.1,2.6.52,10.4.93,15.91l-3.12.52a34.82,34.82,0,0,0-3.12-7.9c-1.66-3.44-4.06-4.16-10.3-4.16h-9.88c-3.22,0-3.43.31-3.43,3.32v23h11.55c7.8,0,8.32-1.56,9.56-8.63h3.23V61.46h-3.23c-1.35-7.49-2.18-8.53-9.67-8.53H289v20.7c0,7.28,2.29,7.9,7.49,8h9.67c6.35,0,7.39-.94,9.67-3.64,2-2.19,4.17-6.45,5.62-9.57Z"/><path class="cls-1" d="M366.9,85.8V82.89c6.76-.84,7.59-1.88,6.13-5.83s-3.43-9.26-5.61-15.81H345c-1.66,4.68-3.22,8.74-4.68,13-2.29,6.76-.83,7.6,7.7,8.64V85.8h-24V82.89c6.55-.84,8.22-1.56,11.86-10.93l21.53-54.6,3.33-.62c6.55,17.78,13.72,37.44,20.28,55.43,3.32,9,4.26,9.88,11.64,10.72V85.8ZM356.5,30.36c-3.33,9-6.87,18.41-10,26.63H366Z"/><path class="cls-1" d="M434.49,34c-1.76-6.86-4.68-13.62-14.45-13.62-8.12,0-10.92,5.93-10.92,11.34,0,7.17,4.57,10.81,13.21,15.28,12.48,6.45,17.88,11.24,17.88,21.12,0,10.92-9.46,19.24-22.88,19.24a43.44,43.44,0,0,1-15.91-3.43,143.44,143.44,0,0,1-2.81-15.6l3.23-.84c2.08,7,6.65,16,17.47,16,7.49,0,12.06-5.2,12.06-12,0-8-4.26-11.23-13.41-16.23C407,49.4,400.9,44.4,400.9,34.73c0-9.25,7.7-18,21.43-18,5.82,0,11.54,1.56,13.72,2,.42,3.74.84,7.9,1.67,14.66Z"/><path class="cls-1" d="M533.08,85.8V82.89c6.76-.84,7.59-1.88,6.13-5.83s-3.43-9.26-5.61-15.81H511.13c-1.66,4.68-3.22,8.74-4.68,13-2.28,6.76-.83,7.6,7.7,8.64V85.8h-24V82.89c6.56-.84,8.22-1.56,11.86-10.93l21.53-54.6,3.33-.62c6.55,17.78,13.73,37.44,20.28,55.43,3.33,9,4.26,9.88,11.65,10.72V85.8Zm-10.4-55.44c-3.33,9-6.87,18.41-10,26.63h19.45Z"/><path class="cls-1" d="M630.21,57.4c-6.45.84-6.86,1.46-6.86,7.6v8.73a57,57,0,0,0,.62,9.88c-6.45,1.46-14.87,3.75-23.61,3.75-23.61,0-38-14.67-38-35.57,0-21.95,17.89-35,38.69-35,10.61,0,18.41,2.08,21.63,2.6.21,3.85.73,10.19,1.56,16.74l-3.12.63c-2.49-8.84-5.51-12.59-12.06-14.77a35.13,35.13,0,0,0-9.67-1.35c-15.92,0-26.21,10.92-26.21,30,0,16.54,8.53,33,28.7,33a20.77,20.77,0,0,0,8.84-1.77c2.19-1.25,3.54-2.39,3.54-6.65V66.56c0-7.6-.83-8.43-10.82-9.16v-3h26.73Z"/><path class="cls-1" d="M692.3,69.26c-.63,2.7-3.44,13.42-4.47,16.54H637.28V82.89c9.67-.73,10.4-1.67,10.4-10.2V31.61c0-9.25-1.14-9.77-8.94-10.5V18.2h31.82c9.78,0,13.83-.11,15.08-.21.11,2.6.52,10.4.94,15.91l-3.12.52a34.82,34.82,0,0,0-3.12-7.9c-1.67-3.44-4.06-4.16-10.3-4.16h-9.88c-3.22,0-3.43.31-3.43,3.32v23h11.54c7.8,0,8.32-1.56,9.57-8.63h3.22V61.46h-3.22c-1.35-7.49-2.18-8.53-9.67-8.53H656.73v20.7c0,7.28,2.29,7.9,7.49,8h9.67c6.34,0,7.38-.94,9.67-3.64,2-2.19,4.16-6.45,5.62-9.57Z"/><path class="cls-1" d="M771.44,21.11c-6.66.73-8.84,1.77-9.15,6.55C762.18,31,762,35.36,762,45v41.7h-4L713.51,32.34v26c0,9.36.31,14,.52,17.06.21,5.3,2.81,6.86,10.3,7.49V85.8H699.05V82.89c6.45-.52,9-2.08,9.36-7.18.31-3.33.52-8,.52-17.47V31.72c0-2.92-.21-4.58-2.08-6.87-2-2.6-4.16-3.22-9.25-3.74V18.2h15.6l44.09,52.31V45c0-9.67-.2-14.15-.52-17.27-.31-4.68-2.7-6.13-11-6.65V18.2h25.69Z"/><path class="cls-1" d="M841.84,69.16a130.66,130.66,0,0,1-5.72,15.7c-3,.63-11.12,2.5-19,2.5-24.86,0-37.55-16.54-37.55-34.74,0-21.22,16.13-35.88,39.42-35.88,8.95,0,16.23,1.87,19.66,2.39.42,4.68,1.14,10.92,2,16.12l-3.22.73c-2.08-7-4.58-11.23-9.88-13.42a28.6,28.6,0,0,0-10.92-2c-17.16,0-26.21,12.69-26.21,29.85,0,20.07,10.4,33,27.25,33,10.61,0,15.81-4.89,21.11-15.29Z"/><path class="cls-1" d="M913.39,21.11c-7.28.83-8.53,2-12.69,8.63-4.68,7.59-8.53,14.77-13.62,24a11,11,0,0,0-1.56,6.14V72.69c0,8.64.93,9.26,10.61,10.2V85.8H866.28V82.89c9.46-1.25,10.19-1.46,10.19-10.2V59.28c0-2.08-.42-3-2.08-6-3.64-6.76-7.18-13.31-12.79-23.08-4.06-7.08-5.1-8.32-12.17-9V18.2H875v2.91c-7.49,1-7.07,2.39-5.2,5.93,4.37,8,9.26,17.36,13.63,25.17,3.74-7,9.67-18.31,12.58-24,2.39-5.2,2.08-6.24-6.13-7.07V18.2h23.5Z"/></svg>